<svg width="134" height="51" fill="none" xmlns="http://www.w3.org/2000/svg"><path d="M2.536 51 0 41.547 13.857 17.57l2.534 9.456L2.536 51Zm20.796-33.697 11.04-2.956-4.902 8.485-11.041 2.954-2.957-11.03 4.903-8.483 2.957 11.03ZM45.31 0l2.534 9.453L33.989 33.43l-2.536-9.455L45.31 0Z" fill="#fff"/><path d="M24.53 33.666 13.492 36.62l4.901-8.482 11.041-2.956 2.96 11.03-4.904 8.483-2.959-11.029Z" fill="#F99926"/><path d="M53.941 39.64V17.08h5.742v8.539h6.51v-8.54h5.74v22.56h-5.74v-8.506h-6.511v8.506h-5.74Zm30.365-22.875c4.697 0 9.379 2.58 9.379 7.742v7.713c0 5.161-4.658 7.742-9.346 7.742-4.689 0-9.38-2.58-9.38-7.742v-7.717c0-5.194 4.659-7.738 9.347-7.738Zm.033 17.907c1.817 0 3.634-.828 3.634-2.448v-7.721c0-1.753-1.88-2.548-3.73-2.548-1.787 0-3.574.891-3.574 2.548v7.713c0 1.657 1.86 2.452 3.67 2.452v.004Zm17.794-17.592 5.454 9.622 1.913 4.524.159-.03c-.03 0-.612-3.888-.637-3.888V17.079h5.677v22.56h-5.773l-5.105-8.89-1.978-4.525-.16.033.733 4.366v9.016h-5.717V17.08h5.434Zm31.071 8.865v4.94h-9.155v3.377H134v5.386h-15.723V17.079H134v5.353h-9.951v3.513h9.155Z" fill="#fff"/></svg>